<svg width="1100" height="900" viewBox="0 0 1100 900" xmlns="http://www.w3.org/2000/svg">

  <style>
    .title { font-family: Arial, sans-serif; font-size: 32px; fill: #1F4E79; font-weight: bold; text-anchor: middle; }
    .center { fill: #1F4E79; }
    .centerText { font-family: Arial, sans-serif; font-size: 22px; fill: white; text-anchor: middle; }
    .domain { fill: #f4f6f8; stroke: #1F4E79; stroke-width: 3; }
    .domainText { font-family: Arial, sans-serif; font-size: 18px; fill: #1F4E79; text-anchor: middle; }
    .principles { fill: none; stroke: #9aa7b3; stroke-width: 2; stroke-dasharray: 8 6; }
    .principlesText { font-family: Arial, sans-serif; font-size: 16px; fill: #5a6a75; text-anchor: middle; }
    .connector { stroke: #c5ccd3; stroke-width: 2; }
  </style>

  <!-- Titel -->
  <text x="550" y="70" class="title">CARE-IT Architekturmodell</text>

  <!-- Äußerer Ring -->
  <circle cx="550" cy="450" r="360" class="principles"/>
  <text x="550" y="100" class="principlesText">
    Normative Grundlage: Grundprinzipien (P1–P8)
  </text>

  <!-- Verbindungslinien (liegen jetzt im Hintergrund) -->
  <line x1="550" y1="450" x2="550" y2="200" class="connector"/>
  <line x1="550" y1="450" x2="850" y2="300" class="connector"/>
  <line x1="550" y1="450" x2="850" y2="600" class="connector"/>
  <line x1="550" y1="450" x2="550" y2="720" class="connector"/>
  <line x1="550" y1="450" x2="250" y2="600" class="connector"/>
  <line x1="550" y1="450" x2="250" y2="300" class="connector"/>

  <!-- Domänen -->
  <rect x="420" y="120" width="260" height="100" rx="20" class="domain"/>
  <text x="550" y="170" class="domainText">D1</text>
  <text x="550" y="195" class="domainText">Klinische Ausrichtung</text>

  <rect x="760" y="250" width="260" height="100" rx="20" class="domain"/>
  <text x="890" y="300" class="domainText">D2</text>
  <text x="890" y="325" class="domainText">Systemverbund</text>

  <rect x="760" y="550" width="260" height="100" rx="20" class="domain"/>
  <text x="890" y="600" class="domainText">D3</text>
  <text x="890" y="625" class="domainText">Verantwortung &amp; Governance</text>

  <rect x="420" y="670" width="260" height="100" rx="20" class="domain"/>
  <text x="550" y="720" class="domainText">D4</text>
  <text x="550" y="745" class="domainText">Risiko &amp; Sicherheit</text>

  <rect x="80" y="550" width="260" height="100" rx="20" class="domain"/>
  <text x="210" y="600" class="domainText">D5</text>
  <text x="210" y="625" class="domainText">Lebenszyklus &amp; Betrieb</text>

  <rect x="80" y="250" width="260" height="100" rx="20" class="domain"/>
  <text x="210" y="300" class="domainText">D6</text>
  <text x="210" y="325" class="domainText">Innovation &amp; Weiterentwicklung</text>

  <!-- Zentrum jetzt ganz am Ende = im Vordergrund -->
  <circle cx="550" cy="450" r="120" class="center"/>
  <text x="550" y="440" class="centerText">Klinische</text>
  <text x="550" y="470" class="centerText">Versorgung</text>

</svg>